{
  "accessors": [
    {
      "bufferView": 2,
      "componentType": 5126,
      "count": 5490,
      "max": [
        22.575307846069336,
        28.654876708984375,
        9.999999046325684
      ],
      "min": [
        -11.340890884399414,
        -32.05523681640625,
        7.05830192565918
      ],
      "type": "VEC3"
    },
    {
      "bufferView": 2,
      "byteOffset": 65880,
      "componentType": 5126,
      "count": 5490,
      "max": [
        1.0,
        0.9999994039535522,
        1.0
      ],
      "min": [
        -1.0,
        -0.9999883770942688,
        -1.0
      ],
      "type": "VEC3"
    },
    {
      "bufferView": 1,
      "componentType": 5126,
      "count": 5490,
      "max": [
        0.829580545425415,
        0.8837183117866516
      ],
      "min": [
        0.15563488006591797,
        0.12296123802661896
      ],
      "type": "VEC2"
    },
    {
      "bufferView": 0,
      "componentType": 5125,
      "count": 10896,
      "type": "SCALAR"
    }
  ],
  "asset": {
    "extras": {
      "author": "Mário Mendes (https://sketchfab.com/mariomendesdeveloper)",
      "license": "CC-BY-4.0 (http://creativecommons.org/licenses/by/4.0/)",
      "source": "https://sketchfab.com/3d-models/gothic-window-371f87b2f6564e48919be1e97cf360c2",
      "title": "Gothic Window"
    },
    "generator": "Sketchfab-12.65.0",
    "version": "2.0"
  },
  "bufferViews": [
    {
      "buffer": 0,
      "byteLength": 43584,
      "name": "floatBufferViews",
      "target": 34963
    },
    {
      "buffer": 0,
      "byteLength": 43920,
      "byteOffset": 43584,
      "byteStride": 8,
      "name": "floatBufferViews",
      "target": 34962
    },
    {
      "buffer": 0,
      "byteLength": 131760,
      "byteOffset": 87504,
      "byteStride": 12,
      "name": "floatBufferViews",
      "target": 34962
    }
  ],
  "buffers": [
    {
      "byteLength": 219264,
      "uri": "scene.bin"
    }
  ],
  "images": [
    {
      "uri": "textures/window_baseColor.jpeg"
    }
  ],
  "materials": [
    {
      "doubleSided": true,
      "name": "window",
      "pbrMetallicRoughness": {
        "baseColorTexture": {
          "index": 0
        },
        "metallicFactor": 0.0,
        "roughnessFactor": 0.0
      }
    }
  ],
  "meshes": [
    {
      "name": "frame_window_0",
      "primitives": [
        {
          "attributes": {
            "NORMAL": 1,
            "POSITION": 0,
            "TEXCOORD_0": 2
          },
          "indices": 3,
          "material": 0,
          "mode": 4
        }
      ]
    }
  ],
  "nodes": [
    {
      "children": [
        1
      ],
      "matrix": [
        1.0,
        0.0,
        0.0,
        0.0,
        0.0,
        2.220446049250313e-16,
        -1.0,
        0.0,
        0.0,
        1.0,
        2.220446049250313e-16,
        0.0,
        0.0,
        0.0,
        0.0,
        1.0
      ],
      "name": "Sketchfab_model"
    },
    {
      "children": [
        2
      ],
      "matrix": [
        0.009999999776482582,
        0.0,
        0.0,
        0.0,
        0.0,
        0.0,
        0.009999999776482582,
        0.0,
        0.0,
        -0.009999999776482582,
        0.0,
        0.0,
        0.0,
        0.0,
        0.0,
        1.0
      ],
      "name": "1bb1aef144014529a8e22ca18a261d54.fbx"
    },
    {
      "children": [
        3
      ],
      "name": "RootNode"
    },
    {
      "children": [
        4
      ],
      "matrix": [
        6.295413017272949,
        0.0,
        0.0,
        0.0,
        0.0,
        6.295413017272943,
        2.751812428234022e-07,
        0.0,
        0.0,
        -2.751812428234022e-07,
        6.295413017272943,
        0.0,
        -36.73051071166992,
        11.703707695007324,
        -208.00657653808594,
        1.0
      ],
      "name": "frame"
    },
    {
      "mesh": 0,
      "name": "frame_window_0"
    }
  ],
  "samplers": [
    {
      "magFilter": 9729,
      "minFilter": 9987,
      "wrapS": 10497,
      "wrapT": 10497
    }
  ],
  "scene": 0,
  "scenes": [
    {
      "name": "Sketchfab_Scene",
      "nodes": [
        0
      ]
    }
  ],
  "textures": [
    {
      "sampler": 0,
      "source": 0
    }
  ]
}
