{
  "accessors": [
    {
      "bufferView": 2,
      "componentType": 5126,
      "count": 12160,
      "max": [
        1.0,
        0.24525199830532074,
        0.4349850118160248
      ],
      "min": [
        -1.0,
        0.05508739873766899,
        -0.4349850118160248
      ],
      "type": "VEC3"
    },
    {
      "bufferView": 2,
      "byteOffset": 145920,
      "componentType": 5126,
      "count": 12160,
      "max": [
        1.0,
        1.0,
        1.0
      ],
      "min": [
        -1.0,
        -1.0,
        -1.0
      ],
      "type": "VEC3"
    },
    {
      "bufferView": 3,
      "componentType": 5126,
      "count": 12160,
      "max": [
        1.0,
        0.9999979734420776,
        0.8786619901657104,
        1.0
      ],
      "min": [
        -0.4335860013961792,
        -0.9999939799308777,
        -0.9741860032081604,
        1.0
      ],
      "type": "VEC4"
    },
    {
      "bufferView": 1,
      "componentType": 5126,
      "count": 12160,
      "max": [
        0.9996690154075623,
        0.8835229873657227
      ],
      "min": [
        0.0001819199969759211,
        0.0001665659947320819
      ],
      "type": "VEC2"
    },
    {
      "bufferView": 0,
      "componentType": 5125,
      "count": 69984,
      "type": "SCALAR"
    },
    {
      "bufferView": 2,
      "byteOffset": 291840,
      "componentType": 5126,
      "count": 72,
      "max": [
        0.6518189907073975,
        0.05490349978208542,
        0.2945210039615631
      ],
      "min": [
        -0.6518189907073975,
        -0.2422810047864914,
        -0.2945210039615631
      ],
      "type": "VEC3"
    },
    {
      "bufferView": 2,
      "byteOffset": 292704,
      "componentType": 5126,
      "count": 72,
      "max": [
        1.0,
        1.6292099758175027e-07,
        1.0
      ],
      "min": [
        -1.0,
        -1.6292099758175027e-07,
        -1.0
      ],
      "type": "VEC3"
    },
    {
      "bufferView": 3,
      "byteOffset": 194560,
      "componentType": 5126,
      "count": 72,
      "max": [
        1.0,
        1.73462995007867e-05,
        1.0,
        1.0
      ],
      "min": [
        -1.0,
        -2.0625500837923028e-05,
        -1.0,
        1.0
      ],
      "type": "VEC4"
    },
    {
      "bufferView": 1,
      "byteOffset": 97280,
      "componentType": 5126,
      "count": 72,
      "max": [
        0.9998300075531006,
        0.7165070176124573
      ],
      "min": [
        0.00017000199295580387,
        0.00017000199295580387
      ],
      "type": "VEC2"
    },
    {
      "bufferView": 0,
      "byteOffset": 279936,
      "componentType": 5125,
      "count": 192,
      "type": "SCALAR"
    },
    {
      "bufferView": 2,
      "byteOffset": 293568,
      "componentType": 5126,
      "count": 104,
      "max": [
        0.6518189907073975,
        -0.2422800064086914,
        0.2945210039615631
      ],
      "min": [
        -0.6518189907073975,
        -0.24525199830532074,
        -0.2945210039615631
      ],
      "type": "VEC3"
    },
    {
      "bufferView": 2,
      "byteOffset": 294816,
      "componentType": 5126,
      "count": 104,
      "max": [
        1.0,
        1.6292099758175027e-07,
        1.0
      ],
      "min": [
        -1.0,
        -1.0,
        -1.0
      ],
      "type": "VEC3"
    },
    {
      "bufferView": 3,
      "byteOffset": 195712,
      "componentType": 5126,
      "count": 104,
      "max": [
        1.0,
        0.19610999524593353,
        1.0,
        1.0
      ],
      "min": [
        -1.0,
        -0.19612200558185577,
        -1.0,
        -1.0
      ],
      "type": "VEC4"
    },
    {
      "bufferView": 1,
      "byteOffset": 97856,
      "componentType": 5126,
      "count": 104,
      "max": [
        0.9998300075531006,
        0.7236700057983398
      ],
      "min": [
        0.00018254699534736574,
        0.7165039777755737
      ],
      "type": "VEC2"
    },
    {
      "bufferView": 0,
      "byteOffset": 280704,
      "componentType": 5125,
      "count": 288,
      "type": "SCALAR"
    },
    {
      "bufferView": 2,
      "byteOffset": 296064,
      "componentType": 5126,
      "count": 576,
      "max": [
        0.8075990080833435,
        0.20155000686645508,
        0.24304500222206116
      ],
      "min": [
        -0.8061059713363647,
        0.18596099317073822,
        -0.24392299354076385
      ],
      "type": "VEC3"
    },
    {
      "bufferView": 2,
      "byteOffset": 302976,
      "componentType": 5126,
      "count": 576,
      "max": [
        0.6871010065078735,
        0.9807997345924377,
        0.6871010065078735
      ],
      "min": [
        -0.6871010065078735,
        0.7265578508377075,
        -0.6871010065078735
      ],
      "type": "VEC3"
    },
    {
      "bufferView": 3,
      "byteOffset": 197376,
      "componentType": 5126,
      "count": 576,
      "max": [
        0.9352440237998962,
        0.6444309949874878,
        0.46869099140167236,
        1.0
      ],
      "min": [
        0.6565369963645935,
        -0.6447870135307312,
        -0.4692290127277374,
        1.0
      ],
      "type": "VEC4"
    },
    {
      "bufferView": 1,
      "byteOffset": 98688,
      "componentType": 5126,
      "count": 576,
      "max": [
        0.9966130256652832,
        0.9995229840278625
      ],
      "min": [
        0.00047665901365689933,
        0.00047665901365689933
      ],
      "type": "VEC2"
    },
    {
      "bufferView": 0,
      "byteOffset": 281856,
      "componentType": 5125,
      "count": 2736,
      "type": "SCALAR"
    }
  ],
  "asset": {
    "extras": {
      "author": "kerouac9 (https://sketchfab.com/kerouac9)",
      "license": "CC-BY-4.0 (http://creativecommons.org/licenses/by/4.0/)",
      "source": "https://sketchfab.com/3d-models/barcelona-style-sofa-01c7a9010fa6463897e5919443c72886",
      "title": "Barcelona style sofa"
    },
    "generator": "Sketchfab-12.68.0",
    "version": "2.0"
  },
  "bufferViews": [
    {
      "buffer": 0,
      "byteLength": 292800,
      "name": "floatBufferViews",
      "target": 34963
    },
    {
      "buffer": 0,
      "byteLength": 103296,
      "byteOffset": 292800,
      "byteStride": 8,
      "name": "floatBufferViews",
      "target": 34962
    },
    {
      "buffer": 0,
      "byteLength": 309888,
      "byteOffset": 396096,
      "byteStride": 12,
      "name": "floatBufferViews",
      "target": 34962
    },
    {
      "buffer": 0,
      "byteLength": 206592,
      "byteOffset": 705984,
      "byteStride": 16,
      "name": "floatBufferViews",
      "target": 34962
    }
  ],
  "buffers": [
    {
      "byteLength": 912576,
      "uri": "scene.bin"
    }
  ],
  "images": [
    {
      "uri": "textures/Material_003_baseColor.jpeg"
    },
    {
      "uri": "textures/Material_003_metallicRoughness.png"
    },
    {
      "uri": "textures/Material_003_normal.png"
    },
    {
      "uri": "textures/Material_001_baseColor.jpeg"
    },
    {
      "uri": "textures/Material_001_metallicRoughness.png"
    },
    {
      "uri": "textures/Material_001_normal.png"
    },
    {
      "uri": "textures/Material_002_baseColor.jpeg"
    },
    {
      "uri": "textures/Material_002_metallicRoughness.png"
    },
    {
      "uri": "textures/Material_002_normal.png"
    },
    {
      "uri": "textures/DefaultMaterial_baseColor.jpeg"
    },
    {
      "uri": "textures/DefaultMaterial_metallicRoughness.png"
    },
    {
      "uri": "textures/DefaultMaterial_normal.png"
    }
  ],
  "materials": [
    {
      "doubleSided": true,
      "name": "Material_003",
      "normalTexture": {
        "index": 2
      },
      "occlusionTexture": {
        "index": 1
      },
      "pbrMetallicRoughness": {
        "baseColorTexture": {
          "index": 0
        },
        "metallicRoughnessTexture": {
          "index": 1
        }
      }
    },
    {
      "doubleSided": true,
      "name": "Material_001",
      "normalTexture": {
        "index": 5
      },
      "occlusionTexture": {
        "index": 4
      },
      "pbrMetallicRoughness": {
        "baseColorTexture": {
          "index": 3
        },
        "metallicRoughnessTexture": {
          "index": 4
        }
      }
    },
    {
      "doubleSided": true,
      "name": "Material_002",
      "normalTexture": {
        "index": 8
      },
      "occlusionTexture": {
        "index": 7
      },
      "pbrMetallicRoughness": {
        "baseColorTexture": {
          "index": 6
        },
        "metallicRoughnessTexture": {
          "index": 7
        }
      }
    },
    {
      "doubleSided": true,
      "name": "DefaultMaterial",
      "normalTexture": {
        "index": 11
      },
      "occlusionTexture": {
        "index": 10
      },
      "pbrMetallicRoughness": {
        "baseColorTexture": {
          "index": 9
        },
        "metallicRoughnessTexture": {
          "index": 10
        },
        "roughnessFactor": 0.745617378
      }
    }
  ],
  "meshes": [
    {
      "name": "defaultMaterial",
      "primitives": [
        {
          "attributes": {
            "NORMAL": 1,
            "POSITION": 0,
            "TANGENT": 2,
            "TEXCOORD_0": 3
          },
          "indices": 4,
          "material": 3,
          "mode": 4
        }
      ]
    },
    {
      "name": "defaultMaterial",
      "primitives": [
        {
          "attributes": {
            "NORMAL": 6,
            "POSITION": 5,
            "TANGENT": 7,
            "TEXCOORD_0": 8
          },
          "indices": 9,
          "material": 2,
          "mode": 4
        }
      ]
    },
    {
      "name": "defaultMaterial",
      "primitives": [
        {
          "attributes": {
            "NORMAL": 11,
            "POSITION": 10,
            "TANGENT": 12,
            "TEXCOORD_0": 13
          },
          "indices": 14,
          "material": 1,
          "mode": 4
        }
      ]
    },
    {
      "name": "defaultMaterial",
      "primitives": [
        {
          "attributes": {
            "NORMAL": 16,
            "POSITION": 15,
            "TANGENT": 17,
            "TEXCOORD_0": 18
          },
          "indices": 19,
          "material": 0,
          "mode": 4
        }
      ]
    }
  ],
  "nodes": [
    {
      "children": [
        1
      ],
      "matrix": [
        1.0,
        0.0,
        0.0,
        0.0,
        0.0,
        2.220446049250313e-16,
        -1.0,
        0.0,
        0.0,
        1.0,
        2.220446049250313e-16,
        0.0,
        0.0,
        0.0,
        0.0,
        1.0
      ],
      "name": "Sketchfab_model"
    },
    {
      "children": [
        2,
        4,
        6,
        8
      ],
      "matrix": [
        1.0,
        0.0,
        0.0,
        0.0,
        0.0,
        -4.371139006309477e-08,
        0.999999999999999,
        0.0,
        0.0,
        -0.999999999999999,
        -4.371139006309477e-08,
        0.0,
        0.0,
        0.0,
        0.0,
        1.0
      ],
      "name": "Collada visual scene group"
    },
    {
      "children": [
        3
      ],
      "name": "Plane.004"
    },
    {
      "mesh": 0,
      "name": "defaultMaterial"
    },
    {
      "children": [
        5
      ],
      "name": "Circle.002"
    },
    {
      "mesh": 1,
      "name": "defaultMaterial"
    },
    {
      "children": [
        7
      ],
      "name": "Circle.002"
    },
    {
      "mesh": 2,
      "name": "defaultMaterial"
    },
    {
      "children": [
        9
      ],
      "name": "Circle.004"
    },
    {
      "mesh": 3,
      "name": "defaultMaterial"
    }
  ],
  "samplers": [
    {
      "magFilter": 9729,
      "minFilter": 9987,
      "wrapS": 10497,
      "wrapT": 10497
    }
  ],
  "scene": 0,
  "scenes": [
    {
      "name": "Sketchfab_Scene",
      "nodes": [
        0
      ]
    }
  ],
  "textures": [
    {
      "sampler": 0,
      "source": 0
    },
    {
      "sampler": 0,
      "source": 1
    },
    {
      "sampler": 0,
      "source": 2
    },
    {
      "sampler": 0,
      "source": 3
    },
    {
      "sampler": 0,
      "source": 4
    },
    {
      "sampler": 0,
      "source": 5
    },
    {
      "sampler": 0,
      "source": 6
    },
    {
      "sampler": 0,
      "source": 7
    },
    {
      "sampler": 0,
      "source": 8
    },
    {
      "sampler": 0,
      "source": 9
    },
    {
      "sampler": 0,
      "source": 10
    },
    {
      "sampler": 0,
      "source": 11
    }
  ]
}
