{
  "accessors": [
    {
      "bufferView": 1,
      "componentType": 5126,
      "count": 65532,
      "max": [
        121.12284088134766,
        -0.10992431640625,
        273.2269287109375
      ],
      "min": [
        -201.8614959716797,
        -1201.388427734375,
        -210.52548217773438
      ],
      "type": "VEC3"
    },
    {
      "bufferView": 1,
      "byteOffset": 786384,
      "componentType": 5126,
      "count": 65532,
      "max": [
        0.9999995827674866,
        0.9999331831932068,
        0.9999688863754272
      ],
      "min": [
        -0.9999704957008362,
        -0.9999997615814209,
        -0.9999902844429016
      ],
      "type": "VEC3"
    },
    {
      "bufferView": 0,
      "componentType": 5125,
      "count": 310011,
      "type": "SCALAR"
    },
    {
      "bufferView": 1,
      "byteOffset": 1572768,
      "componentType": 5126,
      "count": 65532,
      "max": [
        171.10464477539063,
        7.176874160766602,
        293.82244873046875
      ],
      "min": [
        -216.3637237548828,
        -1216.54150390625,
        -212.85336303710938
      ],
      "type": "VEC3"
    },
    {
      "bufferView": 1,
      "byteOffset": 2359152,
      "componentType": 5126,
      "count": 65532,
      "max": [
        0.9999961853027344,
        0.9999618530273438,
        0.9999724626541138
      ],
      "min": [
        -0.9999954104423523,
        -0.9999999403953552,
        -0.9999954104423523
      ],
      "type": "VEC3"
    },
    {
      "bufferView": 0,
      "byteOffset": 1240044,
      "componentType": 5125,
      "count": 311784,
      "type": "SCALAR"
    },
    {
      "bufferView": 1,
      "byteOffset": 3145536,
      "componentType": 5126,
      "count": 65532,
      "max": [
        135.98837280273438,
        45.4073486328125,
        293.996826171875
      ],
      "min": [
        -218.37234497070313,
        -1217.028076171875,
        -239.39028930664063
      ],
      "type": "VEC3"
    },
    {
      "bufferView": 1,
      "byteOffset": 3931920,
      "componentType": 5126,
      "count": 65532,
      "max": [
        0.9999671578407288,
        0.9999788403511047,
        0.9999948740005493
      ],
      "min": [
        -0.9999999403953552,
        -0.9999999403953552,
        -0.9999880194664001
      ],
      "type": "VEC3"
    },
    {
      "bufferView": 0,
      "byteOffset": 2487180,
      "componentType": 5125,
      "count": 310461,
      "type": "SCALAR"
    },
    {
      "bufferView": 1,
      "byteOffset": 4718304,
      "componentType": 5126,
      "count": 65532,
      "max": [
        171.10464477539063,
        0.8249664306640625,
        303.017578125
      ],
      "min": [
        -239.31976318359375,
        -1216.3590087890625,
        -238.8731231689453
      ],
      "type": "VEC3"
    },
    {
      "bufferView": 1,
      "byteOffset": 5504688,
      "componentType": 5126,
      "count": 65532,
      "max": [
        0.9999671578407288,
        0.9999852180480957,
        0.9999563097953796
      ],
      "min": [
        -0.9999974966049194,
        -0.9999996423721313,
        -0.99992436170578
      ],
      "type": "VEC3"
    },
    {
      "bufferView": 0,
      "byteOffset": 3729024,
      "componentType": 5125,
      "count": 280260,
      "type": "SCALAR"
    },
    {
      "bufferView": 1,
      "byteOffset": 6291072,
      "componentType": 5126,
      "count": 65532,
      "max": [
        260.28253173828125,
        46.86766052246094,
        302.94189453125
      ],
      "min": [
        -239.31976318359375,
        -1170.62939453125,
        -235.81854248046875
      ],
      "type": "VEC3"
    },
    {
      "bufferView": 1,
      "byteOffset": 7077456,
      "componentType": 5126,
      "count": 65532,
      "max": [
        0.9999961853027344,
        0.9999871253967285,
        0.9999842047691345
      ],
      "min": [
        -0.9999999403953552,
        -1.0,
        -0.9999709725379944
      ],
      "type": "VEC3"
    },
    {
      "bufferView": 0,
      "byteOffset": 4850064,
      "componentType": 5125,
      "count": 235995,
      "type": "SCALAR"
    },
    {
      "bufferView": 1,
      "byteOffset": 7863840,
      "componentType": 5126,
      "count": 15878,
      "max": [
        260.32598876953125,
        0.2845001220703125,
        165.70785522460938
      ],
      "min": [
        -170.06411743164063,
        -1215.502685546875,
        -226.05517578125
      ],
      "type": "VEC3"
    },
    {
      "bufferView": 1,
      "byteOffset": 8054376,
      "componentType": 5126,
      "count": 15878,
      "max": [
        0.9995338916778564,
        0.9998067021369934,
        0.9999948740005493
      ],
      "min": [
        -0.9998236894607544,
        -0.9999997615814209,
        -0.9999954104423523
      ],
      "type": "VEC3"
    },
    {
      "bufferView": 0,
      "byteOffset": 5794044,
      "componentType": 5125,
      "count": 51489,
      "type": "SCALAR"
    }
  ],
  "asset": {
    "extras": {
      "author": "CIMtech Inc. (https://sketchfab.com/cimtech)",
      "license": "CC-BY-4.0 (http://creativecommons.org/licenses/by/4.0/)",
      "source": "https://sketchfab.com/3d-models/david-statue-3d-scan-artec-3d-08c5b7a46d23401cacaec1acb6c55211",
      "title": "David Statue 3D Scan - Artec 3D"
    },
    "generator": "Sketchfab-12.66.0",
    "version": "2.0"
  },
  "bufferViews": [
    {
      "buffer": 0,
      "byteLength": 6000000,
      "name": "floatBufferViews",
      "target": 34963
    },
    {
      "buffer": 0,
      "byteLength": 8244912,
      "byteOffset": 6000000,
      "byteStride": 12,
      "name": "floatBufferViews",
      "target": 34962
    }
  ],
  "buffers": [
    {
      "byteLength": 14244912,
      "uri": "scene.bin"
    }
  ],
  "materials": [
    {
      "doubleSided": true,
      "name": "material_0",
      "pbrMetallicRoughness": {
        "baseColorFactor": [
          0.5,
          0.5,
          0.5,
          1.0
        ],
        "metallicFactor": 0.0,
        "roughnessFactor": 0.6
      }
    }
  ],
  "meshes": [
    {
      "name": "Object_0",
      "primitives": [
        {
          "attributes": {
            "NORMAL": 1,
            "POSITION": 0
          },
          "indices": 2,
          "material": 0,
          "mode": 4
        }
      ]
    },
    {
      "name": "Object_1",
      "primitives": [
        {
          "attributes": {
            "NORMAL": 4,
            "POSITION": 3
          },
          "indices": 5,
          "material": 0,
          "mode": 4
        }
      ]
    },
    {
      "name": "Object_2",
      "primitives": [
        {
          "attributes": {
            "NORMAL": 7,
            "POSITION": 6
          },
          "indices": 8,
          "material": 0,
          "mode": 4
        }
      ]
    },
    {
      "name": "Object_3",
      "primitives": [
        {
          "attributes": {
            "NORMAL": 10,
            "POSITION": 9
          },
          "indices": 11,
          "material": 0,
          "mode": 4
        }
      ]
    },
    {
      "name": "Object_4",
      "primitives": [
        {
          "attributes": {
            "NORMAL": 13,
            "POSITION": 12
          },
          "indices": 14,
          "material": 0,
          "mode": 4
        }
      ]
    },
    {
      "name": "Object_5",
      "primitives": [
        {
          "attributes": {
            "NORMAL": 16,
            "POSITION": 15
          },
          "indices": 17,
          "material": 0,
          "mode": 4
        }
      ]
    }
  ],
  "nodes": [
    {
      "children": [
        1
      ],
      "matrix": [
        -0.00021629745108838784,
        0.002315335507788105,
        -0.0009223030307862681,
        0.0,
        -0.00048650257461266624,
        -0.0009471851409258847,
        -0.0022637053324099654,
        0.0,
        -0.0024443275195211445,
        -1.636161545852129e-05,
        0.0005321669199589638,
        0.0,
        -64.1074447631836,
        -193.52813720703125,
        51.69226455688472,
        1.0
      ],
      "name": "Sketchfab_model"
    },
    {
      "children": [
        2,
        3,
        4,
        5,
        6,
        7
      ],
      "name": "david small obj.obj.cleaner"
    },
    {
      "mesh": 0,
      "name": "Object_2"
    },
    {
      "mesh": 1,
      "name": "Object_3"
    },
    {
      "mesh": 2,
      "name": "Object_4"
    },
    {
      "mesh": 3,
      "name": "Object_5"
    },
    {
      "mesh": 4,
      "name": "Object_6"
    },
    {
      "mesh": 5,
      "name": "Object_7"
    }
  ],
  "scene": 0,
  "scenes": [
    {
      "name": "Sketchfab_Scene",
      "nodes": [
        0
      ]
    }
  ]
}
